<?xml version="1.0" encoding="UTF-8"?>
<svg width="512" height="512" viewBox="0 0 512 512" fill="none" xmlns="http://www.w3.org/2000/svg">
  <defs>
    <linearGradient id="mainGradient" x1="0%" y1="0%" x2="100%" y2="100%">
      <stop offset="0%" style="stop-color:#00E676"/>
      <stop offset="50%" style="stop-color:#00C853"/>
      <stop offset="100%" style="stop-color:#00B14F"/>
    </linearGradient>
  </defs>
  
  <!-- Background -->
  <rect width="512" height="512" rx="100" fill="url(#mainGradient)"/>
  
  <!-- Letter G stylized as a service icon -->
  <path d="M256 80C160 80 80 160 80 256C80 352 160 432 256 432C320 432 376 400 408 352L408 256L256 256L256 312L340 312L340 340C316 364 288 376 256 376C188 376 136 324 136 256C136 188 188 136 256 136C296 136 332 156 352 188L400 156C368 108 316 80 256 80Z" fill="white"/>
  
  <!-- Checkmark accent -->
  <circle cx="380" cy="380" r="70" fill="white"/>
  <circle cx="380" cy="380" r="55" fill="url(#mainGradient)"/>
  <path d="M355 380L372 397L410 359" stroke="white" stroke-width="10" stroke-linecap="round" stroke-linejoin="round" fill="none"/>
</svg>